# xmcd
#
# Track frame offsets:
#	150
#	17075
#	35133
#	50695
#	71839
#	89258
#	109325
#	127655
#	148852
#	183035
#	207902
#	226635
#	248964
#	267570
#	288129
#	309048
#	327104
#
# Disc length: 4605
#
# Revision: 2
# Processed by: cddbd v1.5.1PL0 Copyright (c) Steve Scherf et al.
# Submitted via: CDex 1.40Release
# Normalized: r1:DSETVAR1
#
DISCID=ee11fb11
DTITLE=Various Artist - Buddha-Bar mix [CD1)
DYEAR=2003
DGENRE=Native American
TTITLE0=Panjabi MC - Mundian To Back Me
TTITLE1=Ishtar - Co mme Toi
TTITLE2=Jade Or - Opium
TTITLE3=Nitin Sawhney - Moonrise
TTITLE4=Gotan Project - Una Musica Brutal
TTITLE5=So Emotional - All by Myself
TTITLE6=Etti Ankry - Eshebo
TTITLE7=Metin Arolat - Elveda
TTITLE8=Straight to the heart - Sina Vodjani
TTITLE9=Une table a trois - Zen Men
TTITLE10=Guru Brahma - ai Uttal
TTITLE11=Zeb - Suslim
TTITLE12=Hasan Cihat Orter - Flirting Shadows
TTITLE13=Anna Vissy - Den Me Agaps
TTITLE14=Nacho Sotomayor - Don`t Do Anything
TTITLE15=Deepak Ram - A night in Lanasia
TTITLE16=Amr Diab - Tammaly Maak (Always with you)
EXTD=YEAR: 2003 ID3G: 64
EXTT0=
EXTT1=
EXTT2=
EXTT3=
EXTT4=
EXTT5=
EXTT6=
EXTT7=
EXTT8=
EXTT9=
EXTT10=
EXTT11=
EXTT12=
EXTT13=
EXTT14=
EXTT15=
EXTT16=
PLAYORDER=
